<svg id="visual" viewBox="0 0 1920 1080" width="1920" height="1080" xmlns="http://www.w3.org/2000/svg" xmlns:xlink="http://www.w3.org/1999/xlink" version="1.1"><path d="M0 729L45.7 760.7C91.3 792.3 182.7 855.7 274.2 848.3C365.7 841 457.3 763 548.8 745.5C640.3 728 731.7 771 823 797.2C914.3 823.3 1005.7 832.7 1097 821C1188.3 809.3 1279.7 776.7 1371.2 785C1462.7 793.3 1554.3 842.7 1645.8 846.8C1737.3 851 1828.7 810 1874.3 789.5L1920 769L1920 1081L1874.3 1081C1828.7 1081 1737.3 1081 1645.8 1081C1554.3 1081 1462.7 1081 1371.2 1081C1279.7 1081 1188.3 1081 1097 1081C1005.7 1081 914.3 1081 823 1081C731.7 1081 640.3 1081 548.8 1081C457.3 1081 365.7 1081 274.2 1081C182.7 1081 91.3 1081 45.7 1081L0 1081Z" fill="#dab200" stroke-linecap="round" stroke-linejoin="miter"></path></svg>